<svg xmlns="http://www.w3.org/2000/svg" width="1039.977" height="636" viewBox="0 0 1039.977 636">
  <g id="Group_28" data-name="Group 28" transform="translate(-440.697 -442)">
    <g id="Group_27" data-name="Group 27">
      <g id="Rectangle_12" data-name="Rectangle 12" transform="translate(441 442)" fill="#707070" stroke="#707070" stroke-width="1">
        <rect width="1039" height="636" rx="59" stroke="none"/>
        <rect x="0.5" y="0.5" width="1038" height="635" rx="58.5" fill="none"/>
      </g>
      <g id="Rectangle_22" data-name="Rectangle 22" transform="translate(543 525)" fill="#fff" stroke="#707070" stroke-width="1">
        <rect width="155" height="107" rx="20" stroke="none"/>
        <rect x="0.5" y="0.5" width="154" height="106" rx="19.5" fill="none"/>
      </g>
      <line id="Line_4" data-name="Line 4" y2="55" transform="translate(576.5 550.5)" fill="none" stroke="#707070" stroke-width="2"/>
      <line id="Line_5" data-name="Line 5" y2="55" transform="translate(663.5 550.5)" fill="none" stroke="#707070" stroke-width="2"/>
      <line id="Line_6" data-name="Line 6" x2="25" transform="translate(576.5 567.5)" fill="none" stroke="#707070" stroke-width="1"/>
      <line id="Line_7" data-name="Line 7" x2="26" transform="translate(576.5 567.5)" fill="none" stroke="#707070" stroke-width="2"/>
      <line id="Line_8" data-name="Line 8" x2="26" transform="translate(576.5 587.5)" fill="none" stroke="#707070" stroke-width="2"/>
      <line id="Line_9" data-name="Line 9" x2="25" transform="translate(638.5 567.5)" fill="none" stroke="#707070" stroke-width="2"/>
      <line id="Line_10" data-name="Line 10" x2="25" transform="translate(638.5 587.5)" fill="none" stroke="#707070" stroke-width="2"/>
      <g id="Ellipse_4" data-name="Ellipse 4" transform="translate(602 551)" fill="#fff" stroke="#707070" stroke-width="2">
        <circle cx="18.5" cy="18.5" r="18.5" stroke="none"/>
        <circle cx="18.5" cy="18.5" r="17.5" fill="none"/>
      </g>
      <g id="Ellipse_5" data-name="Ellipse 5" transform="translate(602 569)" fill="#fff" stroke="#707070" stroke-width="2">
        <circle cx="18.5" cy="18.5" r="18.5" stroke="none"/>
        <circle cx="18.5" cy="18.5" r="17.5" fill="none"/>
      </g>
      <rect id="Rectangle_23" data-name="Rectangle 23" width="30" height="23" transform="translate(605.5 567)" fill="#fff"/>
    </g>
    <path id="Path_6" data-name="Path 6" d="M9135.873,325.907s465.256-56.789,563.514-63.038,312.638-8.861,475.486,36.716" transform="translate(-8694.873 394.093)" fill="none" stroke="#b7b2b2" stroke-width="5"/>
  </g>
</svg>
